<?xml version="1.0" encoding="utf-8"?>
<!-- Generator: Adobe Illustrator 16.0.0, SVG Export Plug-In . SVG Version: 6.00 Build 0)  -->
<!DOCTYPE svg PUBLIC "-//W3C//DTD SVG 1.1//EN" "http://www.w3.org/Graphics/SVG/1.1/DTD/svg11.dtd">
<svg xmlns="http://www.w3.org/2000/svg" xmlns:xlink="http://www.w3.org/1999/xlink" version="1.1" id="Layer_1" x="0px" y="0px" width="3057.306px" height="927.093px" viewBox="0 0 3057.306 927.093" xml:space="preserve">
<g>
	<g>
		<g>
			<g>
				<path fill="#FFFFFF" d="M2294.9,137.782V33.392h-0.029c-0.137-6.076-2.781-11-5.059-13.604      c-8.707-11.982-31.881-19.705-59.213-19.705c-15.911,0-30.953,2.439-42.354,6.869c-13.042,5.07-20.225,12.461-20.225,20.812      c0,0.207,0.021,0.406,0.029,0.609h-0.029v38.688c-4.09,0.408-7.717,1.793-10.843,4.17      c-10.185,7.742-10.303,22.963-10.303,23.607v43.812l-16.074-6.002v171.742l89.932,33.582l91.205-34.939V131.255L2294.9,137.782z       M2182.853,116.376c-0.143-1.727,0.105-6.76,2.938-9.301c2.199-1.975,5.953-2.465,11.148-1.461      c20.296,3.922,54.618-0.803,74.954-10.318c4.404-2.061,8.482-4.562,12.008-7.312v54.012l-63.217,24.219l-37.809-14.119v-35.227      L2182.853,116.376z M2192.23,17.206c10.161-3.949,23.787-6.123,38.369-6.123c26.02,0,45.061,7.705,50.42,15.318l0.412,0.516      c0.537,0.613,5.104,6.213,0.223,13.934l-0.152,0.256c-3.982,7.125-10.846,13.004-20.404,17.477      c-5.201,2.434-10.92,4.541-16.91,6.293c-0.037-5.811-1.133-14.396-6.412-20.754c-4.309-5.186-10.41-7.932-18.137-8.162      c-16.209-0.977-40.618-2.459-40.618-8.195C2179.021,25.263,2182.479,20.995,2192.23,17.206z M2179.021,41.442      c1.892,0.766,4.012,1.428,6.387,1.973c8.88,2.037,21.475,2.797,33.656,3.531l0.182,0.008c4.517,0.121,7.804,1.486,10.048,4.174      c3.787,4.533,4.123,12.252,3.828,16.523c-19.028,4.018-39.128,4.533-53.026,0.676c-0.363-0.102-0.718-0.186-1.074-0.275V41.442z       M2157.875,94.858c0.021-2.9,1.139-11.232,5.987-14.891c3.041-2.295,7.51-2.646,13.289-1.041      c23.771,6.598,61.862,2.135,88.61-10.381c7.297-3.416,13.363-7.594,18.139-12.486v16.352c-3.17,4.664-9.387,9.514-16.67,12.922      c-17.939,8.393-50.45,12.912-68.204,9.48c-8.81-1.701-15.765-0.307-20.668,4.152c-6.924,6.297-6.637,16.016-6.483,18.125v30.896      l-14-5.229V94.858z M2300.938,295.47l-80.254,30.744l-78.883-29.457V148.499l5.074,1.895l11,4.107l14,5.229l11,4.107      l37.857,14.137l63.168-24.199l11-4.213l6.037-2.312V295.47z"/>
			</g>
		</g>
		<g>
			<g>
				<polygon fill="#FFFFFF" points="2130.801,132.649 2146.875,125.339 2146.875,141.839     "/>
			</g>
		</g>
		<g>
			<g>
				<polygon fill="#FFFFFF" points="2311.875,131.399 2294.801,123.089 2294.801,139.589     "/>
			</g>
		</g>
	</g>
	<g>
		<g>
			<g>
				<path fill="#FFFFFF" d="M1669.214,759.998h-284.825l40.062-72.115h204.698L1669.214,759.998z M1406.482,746.998h240.638      l-25.619-46.115h-189.4L1406.482,746.998z"/>
			</g>
		</g>
		<g>
			<g>
				<polygon fill="#FFFFFF" points="1526.801,911.894 1383.382,760.349 1392.823,751.413 1526.803,892.981 1660.821,751.412       1670.263,760.35     "/>
			</g>
		</g>
		<g>
			<g>
				
					<rect x="1569.563" y="683.308" transform="matrix(0.9038 0.428 -0.428 0.9038 493.374 -597.734)" fill="#FFFFFF" width="13.001" height="230.203"/>
			</g>
		</g>
		<g>
			<g>
				
					<rect x="1362.437" y="791.91" transform="matrix(0.428 0.9038 -0.9038 0.428 1566.7549 -878.6769)" fill="#FFFFFF" width="230.204" height="13.001"/>
			</g>
		</g>
		<g>
			<g>
				
					<rect x="1485.036" y="681.209" transform="matrix(0.6424 0.7664 -0.7664 0.6424 1090.6678 -883.0059)" fill="#FFFFFF" width="13" height="92.029"/>
			</g>
		</g>
		<g>
			<g>
				
					<rect x="1514.489" y="720.724" transform="matrix(0.7664 0.6424 -0.6424 0.7664 831.6725 -832.5293)" fill="#FFFFFF" width="92.028" height="13"/>
			</g>
		</g>
		<g>
			<g>
				<path fill="#FFFFFF" d="M1625.325,614.795c0,39.52-32.036,71.555-71.555,71.555c39.519,0,71.555,32.035,71.555,71.553      c0-39.518,32.034-71.553,71.553-71.553C1657.359,686.35,1625.325,654.314,1625.325,614.795z"/>
			</g>
		</g>
	</g>
	<g>
		<g>
			<path fill="#FFFFFF" d="M2753.371,119.094c-5.141,0-9.977-0.537-14.484-1.614c-0.988-0.235-1.898-0.718-2.648-1.401l-0.398-0.363     c-0.295-0.27-0.564-0.568-0.801-0.891c-3.717-5.082-6.594-11.009-8.316-17.141c-3.447-12.26-2.365-25.031,3.047-35.961     c5.516-11.141,14.844-19.044,26.264-22.254c0.086-0.024,0.172-0.047,0.256-0.066l2.57-0.602     c27.393-6.631,78.047-14.385,130.51-14.385c45.936,0,96.41,6.704,126.055,13.349l5.465,1.227c0.104,0.023,0.207,0.05,0.311,0.079     c11.42,3.21,20.748,11.113,26.264,22.254c5.412,10.931,6.494,23.701,3.047,35.961c-1.725,6.135-4.6,12.062-8.316,17.141     c-0.238,0.325-0.508,0.625-0.807,0.896l-0.396,0.361c-0.75,0.682-1.658,1.161-2.643,1.396     c-9.938,2.375-21.486,2.129-34.326-0.729c-16.699-3.713-30.408-11.191-38.602-21.055c-0.805-0.969-1.283-2.164-1.369-3.42     l-0.084-1.2c-0.338-5.802,0.295-11.565,1.879-17.196l1.623-5.777l11.553,3.248l-1.623,5.775     c-1.143,4.061-1.645,8.201-1.496,12.318c6.609,7.056,17.674,12.691,30.725,15.594c10.154,2.259,19.201,2.66,26.93,1.197     c2.373-3.58,4.229-7.625,5.4-11.799c2.643-9.396,1.844-19.123-2.248-27.389c-3.965-8.007-10.57-13.678-18.611-15.984l-5.301-1.19     c-28.998-6.499-78.41-13.058-123.428-13.058c-51.406,0-100.936,7.573-127.73,14.059l-2.479,0.58     c-8.053,2.301-14.668,7.977-18.637,15.992c-4.092,8.266-4.891,17.992-2.248,27.389c1.172,4.172,3.027,8.217,5.402,11.801     c7.727,1.463,16.773,1.061,26.926-1.199c13.055-2.904,24.121-8.541,30.73-15.598c0.15-4.072-0.352-8.231-1.498-12.314     l-1.623-5.777l11.553-3.243l1.623,5.776c1.582,5.636,2.215,11.398,1.883,17.13l-0.09,1.269c-0.088,1.254-0.566,2.447-1.369,3.414     c-8.191,9.863-21.9,17.342-38.602,21.057C2766.195,118.312,2759.564,119.094,2753.371,119.094z"/>
		</g>
		<g>
			<path fill="#FFFFFF" d="M2865.682,76.1c0,0,0.188-0.248,0.539-0.653c0.352-0.386,0.865-1.03,1.521-1.678     c0.656-0.682,1.451-1.512,2.363-2.349c0.457-0.406,0.943-0.839,1.455-1.296c0.256-0.257,0.518-0.214,0.787-0.094     c0.27,0.109,0.545,0.056,0.824,0.069c4.494,0,10.488,0,16.48,0s11.984,0,16.479,0c0.281-0.019,0.555,0.044,0.824-0.054     c0.135-0.044,0.268-0.111,0.398-0.087c0.131,0.014,0.262,0.122,0.389,0.242c0.512,0.459,0.998,0.895,1.455,1.304     c0.912,0.836,1.709,1.659,2.363,2.325c0.656,0.64,1.17,1.264,1.521,1.64c0.352,0.394,0.539,0.63,0.539,0.63     s-0.188,0.236-0.539,0.63c-0.352,0.376-0.865,1-1.521,1.64c-0.654,0.666-1.451,1.489-2.363,2.325     c-0.457,0.409-0.943,0.845-1.455,1.304c-0.127,0.12-0.258,0.229-0.389,0.242c-0.131,0.024-0.264-0.043-0.398-0.087     c-0.27-0.098-0.543-0.035-0.824-0.054c-4.494,0-10.486,0-16.479,0s-11.986,0-16.48,0c-0.279,0.014-0.555-0.04-0.824,0.069     c-0.27,0.12-0.531,0.163-0.787-0.094c-0.512-0.457-0.998-0.89-1.455-1.296c-0.912-0.837-1.707-1.667-2.363-2.349     c-0.656-0.647-1.17-1.292-1.521-1.678C2865.869,76.348,2865.682,76.1,2865.682,76.1z"/>
		</g>
		<g>
			<path fill="#FFFFFF" d="M2878.09,76.1c0,0-0.076,0.219-0.219,0.629c-0.143,0.392-0.352,1.062-0.617,1.702     c-0.133,0.338-0.281,0.713-0.441,1.12c-0.16,0.412-0.334,0.766-0.52,1.194c-0.184,0.417-0.381,0.861-0.59,1.329     c-0.104,0.258-0.209,0.215-0.318,0.095c-0.109-0.109-0.221-0.056-0.336-0.069c-1.824,0-4.256,0-6.688,0s-4.865,0-6.689,0     c-0.113,0.019-0.225-0.044-0.334,0.054c-0.055,0.044-0.109,0.111-0.162,0.087c-0.053-0.018-0.105-0.124-0.158-0.245     c-0.207-0.468-0.404-0.912-0.59-1.329c-0.371-0.801-0.693-1.63-0.959-2.297c-0.266-0.635-0.475-1.281-0.617-1.66     c-0.143-0.397-0.219-0.609-0.219-0.609s0.076-0.212,0.219-0.609c0.143-0.379,0.352-1.025,0.617-1.66     c0.266-0.667,0.588-1.496,0.959-2.297c0.186-0.417,0.383-0.861,0.59-1.329c0.053-0.121,0.105-0.228,0.158-0.245     c0.053-0.024,0.107,0.043,0.162,0.087c0.109,0.098,0.221,0.035,0.334,0.054c1.824,0,4.258,0,6.689,0s4.863,0,6.688,0     c0.115-0.014,0.227,0.04,0.336-0.069c0.109-0.12,0.215-0.163,0.318,0.095c0.209,0.468,0.406,0.912,0.59,1.329     c0.186,0.429,0.359,0.782,0.52,1.194c0.16,0.407,0.309,0.782,0.441,1.12c0.266,0.641,0.475,1.311,0.617,1.702     C2878.014,75.881,2878.09,76.1,2878.09,76.1z"/>
		</g>
		<g>
			<path fill="#FFFFFF" d="M2902.621,76.1c0,0,0.076-0.219,0.219-0.629c0.143-0.392,0.352-1.062,0.617-1.702     c0.133-0.338,0.281-0.713,0.441-1.12c0.16-0.412,0.334-0.766,0.52-1.194c0.186-0.417,0.381-0.861,0.59-1.329     c0.104-0.258,0.211-0.215,0.318-0.095c0.109,0.109,0.223,0.056,0.336,0.069c1.824,0,4.256,0,6.688,0c2.434,0,4.865,0,6.689,0     c0.113-0.019,0.225,0.044,0.334-0.054c0.055-0.044,0.109-0.111,0.162-0.087c0.053,0.018,0.105,0.124,0.158,0.245     c0.207,0.468,0.404,0.912,0.59,1.329c0.371,0.801,0.693,1.63,0.959,2.297c0.266,0.635,0.475,1.281,0.617,1.66     c0.143,0.397,0.219,0.609,0.219,0.609s-0.076,0.212-0.219,0.609c-0.143,0.379-0.352,1.025-0.617,1.66     c-0.266,0.667-0.588,1.496-0.959,2.297c-0.186,0.417-0.383,0.861-0.59,1.329c-0.053,0.121-0.105,0.228-0.158,0.245     c-0.053,0.024-0.107-0.043-0.162-0.087c-0.109-0.098-0.221-0.035-0.334-0.054c-1.824,0-4.256,0-6.689,0c-2.432,0-4.863,0-6.688,0     c-0.113,0.014-0.227-0.04-0.336,0.069c-0.107,0.12-0.215,0.163-0.318-0.095c-0.209-0.468-0.404-0.912-0.59-1.329     c-0.186-0.429-0.359-0.782-0.52-1.194c-0.16-0.407-0.309-0.782-0.441-1.12c-0.266-0.641-0.475-1.311-0.617-1.702     C2902.697,76.318,2902.621,76.1,2902.621,76.1z"/>
		</g>
		<g>
			<path fill="#FFFFFF" d="M2888.805,232.961c-30.363,0-55.064-24.701-55.064-55.064s24.701-55.065,55.064-55.065     s55.066,24.702,55.066,55.065c0,6.984-1.293,13.793-3.842,20.239c-1.219,3.08-4.705,4.591-7.785,3.374     c-3.082-1.219-4.592-4.705-3.375-7.786c1.992-5.036,3.002-10.36,3.002-15.827c0-23.746-19.32-43.065-43.066-43.065     s-43.064,19.319-43.064,43.065s19.318,43.064,43.064,43.064c11.504,0,22.318-4.479,30.451-12.613     c2.344-2.344,6.143-2.344,8.486,0c2.344,2.342,2.344,6.141,0,8.484C2917.344,227.232,2903.514,232.961,2888.805,232.961z"/>
		</g>
		<g>
			<g>
				<path fill="#FFFFFF" d="M2879.98,212.281c-2.58-0.587-4.201-3.148-3.617-5.729l0,0c0.586-2.59,3.156-4.213,5.736-3.626l0,0      c2.58,0.585,4.203,3.156,3.629,5.736l0,0c-0.512,2.227-2.486,3.742-4.684,3.742l0,0      C2880.699,212.405,2880.336,212.366,2879.98,212.281z M2889.92,208.652c-0.596-2.58,1.027-5.15,3.607-5.736l0,0      c2.58-0.595,5.15,1.026,5.746,3.608l0,0c0.586,2.581-1.037,5.151-3.615,5.746l0,0l0,0l0,0c-0.357,0.077-0.721,0.115-1.066,0.115      l0,0C2892.404,212.386,2890.43,210.879,2889.92,208.652z M2865.84,205.488L2865.84,205.488L2865.84,205.488      c-2.072-1.651-2.41-4.664-0.758-6.736l0,0c1.648-2.071,4.66-2.417,6.734-0.768l0,0c2.072,1.651,2.418,4.672,0.768,6.745l0,0      c-0.949,1.189-2.352,1.804-3.762,1.804l0,0C2867.777,206.533,2866.723,206.197,2865.84,205.488z M2856.045,193.254      L2856.045,193.254L2856.045,193.254c-1.152-2.389-0.166-5.255,2.223-6.407l0,0c2.391-1.162,5.26-0.163,6.412,2.226l0,0      c1.16,2.379,0.16,5.248-2.229,6.408l0,0c-0.67,0.326-1.381,0.48-2.08,0.48l0,0      C2858.586,195.961,2856.869,194.963,2856.045,193.254z M2852.531,177.961c-0.01-2.647,2.141-4.797,4.789-4.807l0,0      c2.646,0,4.797,2.142,4.805,4.789l0,0c0,2.646-2.139,4.806-4.785,4.806l0,0C2854.691,182.759,2852.541,180.619,2852.531,177.961      z M2852.531,177.961L2852.531,177.961L2852.531,177.961c0,0,0,0,0,0.011l0,0      C2852.531,177.961,2852.531,177.961,2852.531,177.961z M2858.23,169.059c-2.389-1.142-3.396-4.01-2.244-6.398l0,0l0,0l0,0      c1.141-2.39,4.01-3.396,6.398-2.245l0,0c2.389,1.142,3.396,4.01,2.244,6.398l0,0c-0.822,1.719-2.543,2.726-4.326,2.726l0,0      C2859.611,169.539,2858.902,169.386,2858.23,169.059z M2864.996,157.123c-1.662-2.062-1.326-5.085,0.738-6.733l0,0l0,0l0,0      c2.062-1.662,5.084-1.335,6.744,0.737l0,0c1.658,2.063,1.324,5.085-0.74,6.734l0,0c-0.883,0.722-1.947,1.066-3.002,1.066l0,0      C2867.336,158.928,2865.943,158.312,2864.996,157.123z M2903.715,157.767L2903.715,157.767c-2.07-1.641-2.416-4.662-0.775-6.735      l0,0c1.65-2.072,4.662-2.428,6.744-0.777l0,0c2.072,1.641,2.418,4.663,0.777,6.735l0,0c-0.951,1.2-2.35,1.822-3.76,1.822l0,0      C2905.654,158.812,2904.6,158.467,2903.715,157.767z M2876.25,149.285c-0.596-2.58,1.016-5.152,3.596-5.747l0,0l0,0l0,0      c2.582-0.604,5.162,1.008,5.756,3.597l0,0c0.596,2.581-1.016,5.153-3.598,5.748l0,0c-0.363,0.087-0.729,0.125-1.082,0.125l0,0      C2878.732,153.008,2876.768,151.502,2876.25,149.285z M2893.422,152.854c-2.58-0.584-4.213-3.146-3.627-5.736l0,0      c0.576-2.582,3.146-4.211,5.727-3.626l0,0c2.592,0.575,4.213,3.137,3.637,5.727l0,0c-0.51,2.236-2.484,3.752-4.682,3.752l0,0      C2894.131,152.97,2893.777,152.931,2893.422,152.854z"/>
			</g>
		</g>
		<g>
			<path fill="#FFFFFF" d="M3017.41,262.288c-0.006,0-0.014,0-0.014,0H2760.5c-1.994,0-3.857-0.991-4.973-2.644     s-1.338-3.752-0.592-5.601l63.957-158.575l3.008-25.706c0.354-3.023,2.914-5.303,5.959-5.303h14.381     c3.117,0,5.715,2.386,5.979,5.491l1.789,21.015h77.84l1.789-21.015c0.264-3.105,2.861-5.491,5.979-5.491h14.381     c3.043,0,5.605,2.279,5.959,5.303l3.008,25.705l63.812,158.13c0.406,0.809,0.635,1.723,0.635,2.69     C3023.41,259.602,3020.725,262.288,3017.41,262.288z M2769.391,250.288h239.107l-60.965-151.077     c-0.201-0.496-0.334-1.017-0.395-1.548l-2.482-21.203h-3.531l-1.789,21.015c-0.264,3.105-2.861,5.491-5.979,5.491h-88.859     c-3.117,0-5.715-2.386-5.979-5.491l-1.789-21.015h-3.533l-2.48,21.203c-0.062,0.53-0.195,1.052-0.395,1.547L2769.391,250.288z"/>
		</g>
		<g>
			<polygon fill="#FFFFFF" points="2918.977,200.736 2921.703,196.508 2942.945,204.686 2935.896,217.092    "/>
			<path fill="#FFFFFF" d="M2936.826,223.553l-22.99-22.223l6.268-9.725l28.615,11.016L2936.826,223.553z M2926.836,202.771     l8.131,7.86l2.205-3.881L2926.836,202.771z"/>
		</g>
		<g>
			<path fill="#FFFFFF" d="M2805.611,75.503c0,0-0.232-0.013-0.67-0.037c-0.42-0.03-1.127-0.046-1.824-0.129     c-0.365-0.036-0.77-0.076-1.209-0.119c-0.445-0.043-0.84-0.116-1.309-0.179c-0.457-0.066-0.945-0.137-1.459-0.212     c-0.279-0.038-0.271-0.146-0.191-0.264c0.068-0.121-0.018-0.196-0.041-0.293c-0.141-0.371-0.295-0.773-0.457-1.199     c-0.139-0.416-0.375-0.9-0.588-1.388c-0.229-0.483-0.418-1.007-0.689-1.498c-0.256-0.499-0.518-1.006-0.779-1.513     c-0.268-0.503-0.576-0.982-0.854-1.469c-0.273-0.49-0.576-0.951-0.879-1.389c-0.303-0.439-0.574-0.878-0.863-1.271     c-0.295-0.389-0.574-0.756-0.832-1.095c-0.078-0.074-0.092-0.195-0.23-0.217c-0.064-0.013-0.148-0.011-0.158-0.065     c-0.016-0.051,0.037-0.156,0.104-0.271c0.234-0.446,0.457-0.869,0.666-1.267c0.438-0.854,0.82-1.598,1.135-2.211     c0.303-0.622,0.643-1.219,0.828-1.588c0.195-0.381,0.301-0.585,0.301-0.585s0.211-0.079,0.607-0.227     c0.383-0.134,1.018-0.388,1.691-0.573c0.701-0.207,1.574-0.461,2.479-0.635c0.467-0.092,0.965-0.19,1.488-0.294     c0.135-0.025,0.256-0.04,0.311,0.001c0.059,0.037,0.045,0.132,0.051,0.212c0.004,0.167,0.137,0.237,0.207,0.359     c0.336,0.446,0.701,0.929,1.088,1.438c0.379,0.517,0.74,1.086,1.133,1.662c0.396,0.575,0.789,1.18,1.148,1.815     c0.369,0.632,0.762,1.264,1.113,1.918c0.342,0.659,0.682,1.319,1.016,1.969c0.346,0.645,0.605,1.315,0.898,1.945     c0.279,0.642,0.561,1.229,0.791,1.879c0.236,0.63,0.459,1.226,0.666,1.775c0.062,0.134,0.062,0.284,0.215,0.383     c0.166,0.101,0.25,0.211,0.033,0.388c-0.381,0.354-0.74,0.689-1.08,1.005c-0.348,0.318-0.631,0.603-0.973,0.891     c-0.336,0.287-0.646,0.55-0.926,0.788c-0.527,0.465-1.098,0.88-1.426,1.144C2805.797,75.359,2805.611,75.503,2805.611,75.503z"/>
		</g>
		<g>
			<path fill="#FFFFFF" d="M2981.623,56.849c0,0,0.113,0.204,0.324,0.588c0.199,0.371,0.562,0.977,0.863,1.611     c0.164,0.329,0.346,0.692,0.543,1.089c0.201,0.398,0.35,0.771,0.547,1.201c0.189,0.42,0.379,0.878,0.605,1.342     c0.143,0.239,0.057,0.283-0.092,0.282c-0.139,0.005-0.156,0.116-0.225,0.187c-0.236,0.312-0.492,0.651-0.764,1.01     c-0.271,0.369-0.557,0.825-0.854,1.259c-0.305,0.438-0.605,0.898-0.879,1.389c-0.279,0.486-0.586,0.966-0.855,1.468     c-0.26,0.507-0.521,1.014-0.779,1.513c-0.27,0.492-0.461,1.015-0.688,1.499c-0.215,0.49-0.443,0.955-0.604,1.422     c-0.172,0.46-0.336,0.895-0.488,1.296c-0.021,0.106-0.117,0.184-0.061,0.312c0.023,0.062,0.068,0.132,0.027,0.171     c-0.031,0.042-0.146,0.055-0.275,0.062c-0.504,0.043-0.98,0.083-1.43,0.121c-0.957,0.088-1.791,0.166-2.477,0.229     c-0.689,0.077-1.377,0.107-1.787,0.147c-0.428,0.038-0.656,0.058-0.656,0.058s-0.178-0.137-0.516-0.393     c-0.316-0.253-0.869-0.653-1.387-1.124c-0.549-0.479-1.23-1.081-1.861-1.748c-0.328-0.344-0.68-0.709-1.049-1.095     c-0.096-0.099-0.176-0.194-0.174-0.263c0-0.068,0.088-0.107,0.152-0.155c0.139-0.093,0.127-0.24,0.193-0.364     c0.195-0.52,0.408-1.083,0.633-1.678c0.211-0.601,0.5-1.208,0.779-1.845c0.291-0.631,0.551-1.302,0.896-1.946     c0.336-0.648,0.676-1.309,1.016-1.969c0.352-0.653,0.746-1.285,1.113-1.917c0.361-0.637,0.754-1.24,1.148-1.815     c0.396-0.582,0.746-1.135,1.143-1.674c0.41-0.54,0.797-1.051,1.156-1.522c0.08-0.126,0.209-0.207,0.211-0.389     c-0.006-0.189,0.047-0.329,0.326-0.269c0.51,0.116,0.98,0.255,1.428,0.37c0.457,0.126,0.848,0.213,1.273,0.349     c0.422,0.133,0.811,0.255,1.16,0.365c0.674,0.197,1.33,0.46,1.729,0.598C2981.402,56.77,2981.623,56.849,2981.623,56.849z"/>
		</g>
		<g>
			<path fill="#FFFFFF" d="M2818.309,289.641h-22.697c-2.98,0-5.51-2.188-5.938-5.137l-2.256-15.508l11.875-1.729l1.508,10.373     h12.316l1.51-10.373l11.875,1.729l-2.256,15.508C2823.816,287.453,2821.289,289.641,2818.309,289.641z"/>
		</g>
		<g>
			<path fill="#FFFFFF" d="M2821.059,265.029c0,0,0.205,0.105,0.59,0.304c0.367,0.194,0.998,0.495,1.594,0.846     c0.314,0.178,0.664,0.374,1.043,0.589c0.385,0.215,0.709,0.434,1.105,0.675c0.387,0.24,0.797,0.495,1.229,0.764     c0.24,0.139,0.182,0.234,0.047,0.32c-0.123,0.088-0.086,0.203-0.115,0.31c-0.266,1.745-0.617,4.071-0.971,6.397     c-0.352,2.327-0.705,4.653-0.969,6.398c0.002,0.111-0.076,0.209,0.004,0.328c0.035,0.059,0.096,0.12,0.062,0.168     c-0.025,0.048-0.137,0.082-0.266,0.114c-0.492,0.128-0.959,0.25-1.398,0.365c-0.846,0.234-1.713,0.419-2.41,0.573     c-0.666,0.16-1.336,0.263-1.732,0.342c-0.412,0.077-0.633,0.118-0.633,0.118s-0.199-0.104-0.57-0.3     c-0.355-0.193-0.965-0.49-1.553-0.84c-0.621-0.354-1.395-0.788-2.133-1.262c-0.385-0.24-0.795-0.495-1.229-0.764     c-0.111-0.068-0.209-0.135-0.219-0.188c-0.018-0.055,0.059-0.096,0.109-0.142c0.113-0.09,0.066-0.205,0.102-0.312     c0.264-1.745,0.617-4.071,0.969-6.397c0.354-2.327,0.705-4.653,0.971-6.398c0.004-0.11,0.072-0.21-0.02-0.33     c-0.104-0.123-0.131-0.231,0.139-0.292c0.494-0.128,0.961-0.251,1.4-0.365c0.451-0.113,0.826-0.226,1.256-0.317     c0.426-0.092,0.818-0.177,1.172-0.254c0.672-0.158,1.363-0.258,1.771-0.336C2820.83,265.069,2821.059,265.029,2821.059,265.029z"/>
		</g>
		<g>
			<path fill="#FFFFFF" d="M2792.895,265.064c0,0,0.229,0.04,0.654,0.115c0.408,0.077,1.1,0.177,1.771,0.335     c0.354,0.077,0.746,0.162,1.172,0.254c0.432,0.092,0.805,0.205,1.256,0.317c0.439,0.115,0.906,0.237,1.4,0.366     c0.27,0.061,0.242,0.169,0.139,0.291c-0.092,0.121-0.023,0.22-0.02,0.331c0.266,1.744,0.617,4.071,0.969,6.397     c0.354,2.326,0.705,4.652,0.971,6.397c0.033,0.106-0.012,0.223,0.1,0.312c0.053,0.045,0.127,0.087,0.111,0.142     c-0.01,0.054-0.107,0.119-0.221,0.188c-0.432,0.269-0.842,0.523-1.229,0.764c-0.738,0.475-1.512,0.907-2.131,1.262     c-0.59,0.35-1.199,0.646-1.553,0.84c-0.373,0.195-0.57,0.3-0.57,0.3s-0.221-0.041-0.635-0.118     c-0.395-0.079-1.064-0.183-1.73-0.342c-0.697-0.154-1.564-0.339-2.41-0.573c-0.439-0.115-0.906-0.237-1.4-0.366     c-0.127-0.031-0.24-0.065-0.266-0.114c-0.031-0.047,0.027-0.108,0.064-0.167c0.08-0.119,0.002-0.217,0.004-0.329     c-0.264-1.744-0.617-4.071-0.969-6.397c-0.354-2.326-0.705-4.652-0.969-6.397c-0.031-0.107,0.006-0.222-0.117-0.31     c-0.135-0.087-0.193-0.182,0.047-0.32c0.432-0.269,0.842-0.523,1.229-0.764c0.396-0.241,0.721-0.46,1.105-0.675     c0.379-0.215,0.729-0.411,1.043-0.59c0.596-0.351,1.227-0.65,1.594-0.845C2792.689,265.17,2792.895,265.064,2792.895,265.064z"/>
		</g>
		<g>
			<path fill="#FFFFFF" d="M2982.988,289.641h-22.697c-2.98,0-5.51-2.188-5.938-5.137l-2.256-15.508l11.875-1.729l1.508,10.373     h12.316l1.51-10.373l11.875,1.729l-2.256,15.508C2988.496,287.453,2985.969,289.641,2982.988,289.641z"/>
		</g>
		<g>
			<path fill="#FFFFFF" d="M2985.736,265.029c0,0,0.205,0.105,0.59,0.304c0.367,0.194,1,0.494,1.594,0.845     c0.316,0.179,0.664,0.375,1.045,0.59c0.383,0.215,0.707,0.434,1.105,0.675c0.385,0.24,0.795,0.495,1.229,0.764     c0.24,0.139,0.182,0.233,0.047,0.32c-0.123,0.088-0.088,0.202-0.117,0.31c-0.264,1.745-0.617,4.071-0.969,6.397     c-0.354,2.326-0.705,4.653-0.969,6.397c0,0.112-0.076,0.21,0.004,0.329c0.035,0.059,0.096,0.12,0.062,0.167     c-0.025,0.049-0.137,0.083-0.266,0.114c-0.492,0.129-0.959,0.251-1.398,0.366c-0.846,0.234-1.713,0.419-2.41,0.573     c-0.666,0.159-1.336,0.263-1.732,0.342c-0.412,0.077-0.633,0.118-0.633,0.118s-0.199-0.104-0.57-0.3     c-0.355-0.193-0.965-0.49-1.553-0.84c-0.621-0.354-1.395-0.787-2.133-1.262c-0.385-0.24-0.795-0.495-1.229-0.764     c-0.111-0.068-0.209-0.134-0.219-0.188c-0.018-0.055,0.059-0.097,0.109-0.142c0.113-0.09,0.066-0.206,0.102-0.312     c0.264-1.745,0.617-4.071,0.969-6.397c0.354-2.326,0.705-4.653,0.969-6.397c0.004-0.111,0.072-0.21-0.02-0.331     c-0.102-0.122-0.131-0.23,0.141-0.291c0.492-0.129,0.961-0.251,1.4-0.366c0.449-0.112,0.824-0.226,1.256-0.317     c0.426-0.092,0.816-0.177,1.17-0.254c0.672-0.158,1.365-0.258,1.773-0.335C2985.51,265.069,2985.736,265.029,2985.736,265.029z"/>
		</g>
		<g>
			<path fill="#FFFFFF" d="M2957.574,265.064c0,0,0.227,0.04,0.652,0.114c0.408,0.078,1.102,0.178,1.773,0.336     c0.354,0.077,0.744,0.162,1.17,0.254c0.432,0.092,0.807,0.204,1.258,0.317c0.439,0.114,0.906,0.237,1.398,0.365     c0.271,0.061,0.244,0.169,0.141,0.292c-0.092,0.12-0.023,0.22-0.02,0.33c0.264,1.745,0.617,4.071,0.969,6.398     c0.354,2.326,0.705,4.652,0.971,6.397c0.033,0.106-0.012,0.222,0.1,0.312c0.053,0.046,0.127,0.087,0.111,0.142     c-0.01,0.054-0.107,0.12-0.221,0.188c-0.432,0.269-0.842,0.523-1.229,0.764c-0.738,0.474-1.512,0.907-2.131,1.262     c-0.59,0.35-1.199,0.646-1.553,0.84c-0.373,0.195-0.57,0.3-0.57,0.3s-0.221-0.041-0.635-0.118     c-0.395-0.079-1.064-0.182-1.73-0.342c-0.697-0.154-1.564-0.339-2.41-0.573c-0.439-0.115-0.906-0.237-1.4-0.365     c-0.127-0.032-0.24-0.066-0.266-0.114c-0.031-0.048,0.027-0.109,0.064-0.168c0.08-0.119,0.002-0.217,0.004-0.328     c-0.266-1.745-0.617-4.071-0.971-6.398c-0.352-2.326-0.705-4.652-0.969-6.397c-0.029-0.106,0.008-0.222-0.117-0.31     c-0.135-0.086-0.193-0.182,0.047-0.32c0.434-0.269,0.844-0.523,1.23-0.764c0.396-0.241,0.721-0.46,1.105-0.675     c0.379-0.215,0.729-0.411,1.043-0.589c0.596-0.351,1.227-0.651,1.594-0.846C2957.369,265.17,2957.574,265.064,2957.574,265.064z"/>
		</g>
	</g>
	<g>
		<g>
			<g>
				<path fill="#FFFFFF" d="M3009.367,647.862c-7.406-8.503-20.307-9.393-28.811-1.987c-7.48,6.516-9.064,17.278-4.299,25.563      c-3.518,2.1-7.471,4.502-11.814,7.18c-2.977,1.867-6.148,3.852-9.488,5.945c-1.693,1.024-3.166,2.376-4.604,3.838      c-1.447,1.452-3.07,2.773-4.67,4.189c-3.83,3.332-7.857,6.838-12.035,10.476c-6.713-5.265-14.047-9.765-21.871-13.383      c8.43-17.155,16.299-33.171,23.131-47.075c0.959-1.91,1.818-3.818,2.852-5.59c1.045-1.765,1.975-3.534,2.529-5.433      c1.164-3.767,2.271-7.339,3.311-10.697c1.475-4.886,2.785-9.322,3.912-13.26c9.234,2.481,19.232-1.816,23.609-10.726      c4.971-10.125,0.791-22.361-9.334-27.331c-10.123-4.972-22.361-0.792-27.33,9.332c-4.371,8.904-1.662,19.437,5.939,25.229      c-2.428,3.298-5.141,7.045-8.107,11.197c-2.023,2.874-4.176,5.934-6.445,9.159c-1.162,1.598-1.996,3.414-2.756,5.319      c-0.771,1.899-1.754,3.748-2.682,5.673c-7.021,14.286-15.137,30.806-23.83,48.493c-9.857-2.89-20.281-4.447-31.061-4.447      c-60.977,0-110.586,49.606-110.586,110.584c0,20.207,5.453,39.16,14.957,55.478c-4.643,4.041-9.113,7.93-13.332,11.602      c-1.625,1.389-3.156,2.815-4.779,4.066c-0.809,0.626-1.633,1.219-2.363,1.902c-0.732,0.677-1.391,1.426-2.02,2.188      c-2.531,3.021-4.932,5.892-7.191,8.586c-4.498,5.408-8.34,10.219-11.51,14.17c-3.197,3.924-5.6,7.128-7.283,9.263      c-1.652,2.172-2.533,3.33-2.533,3.33s1.27-0.713,3.648-2.049c2.344-1.372,5.854-3.312,10.178-5.934      c4.352-2.597,9.646-5.733,15.625-9.446c2.98-1.864,6.152-3.847,9.496-5.938c0.842-0.516,1.672-1.064,2.445-1.697      c0.777-0.629,1.479-1.361,2.209-2.077c1.465-1.435,3.088-2.757,4.688-4.173c3.793-3.303,7.781-6.771,11.92-10.373      c6.523,8.168,14.174,15.396,22.725,21.442c-0.191,0.612-0.381,1.228-0.566,1.826c-2.053,6.729-3.729,12.652-5.123,17.522      c-1.424,4.854-2.396,8.741-3.123,11.361c-0.68,2.643-1.045,4.051-1.045,4.051s0.893-1.148,2.57-3.302      c1.631-2.175,4.111-5.319,7.084-9.415c3.006-4.079,6.67-9.023,10.74-14.76c0.113-0.16,0.236-0.332,0.348-0.491      c15.705,8.573,33.703,13.452,52.822,13.452c60.977,0,110.586-49.607,110.586-110.584c0-29.456-11.58-56.258-30.422-76.097      c3.668-3.193,7.221-6.285,10.611-9.235c1.621-1.39,3.156-2.815,4.795-4.049c1.646-1.223,3.188-2.494,4.436-4.027      c2.535-3.021,4.939-5.887,7.197-8.58c3.252-3.932,6.178-7.515,8.744-10.707c7.551,5.865,18.438,5.778,25.922-0.741      C3015.887,669.269,3016.775,656.369,3009.367,647.862z M2850.523,694.23l-80.885,80.859      C2776.119,733.575,2809.006,700.695,2850.523,694.23z M2768.607,795.264l102.09-102.054c6.809,0.36,13.428,1.443,19.793,3.146      c2.322,0.622,4.613,1.32,6.863,2.104l-15.527,15.527L2773.863,821.95C2770.924,813.518,2769.1,804.567,2768.607,795.264z       M2789.328,850.09c-3.359-4.262-6.369-8.807-8.988-13.601c-0.219-0.401-0.455-0.79-0.67-1.193l83.654-83.652l35.4-35.401      l11.975-11.974c4.377,2.313,8.553,4.953,12.508,7.883c1.467,1.087,2.91,2.206,4.311,3.374L2817.262,825.78l-26.336,26.334      C2790.375,851.454,2789.859,850.765,2789.328,850.09z M2825.035,878.275c-1.561-0.719-3.086-1.489-4.6-2.287      c-4.924-2.588-9.6-5.574-13.977-8.938c-2.127-1.632-4.191-3.344-6.174-5.146l17.412-17.412l7.336-7.336l0.002,29.049V878.275z       M2838.576,883.322l-0.002-44.674v-15.031l14.523-14.521l5.33-5.332l0.002,83.104      C2851.592,886.373,2844.949,885.167,2838.576,883.322z M2871.971,886.917l-0.002-84.344l22.562,22.562l0.025,57.576      C2887.352,884.977,2879.783,886.401,2871.971,886.917z M2908.096,877.292l-0.018-38.609l22.949,22.949      C2924.205,867.887,2916.488,873.175,2908.096,877.292z M2940.361,851.813l-64.992-64.99l14.031-14.033l61.746,62.92      C2948.082,841.44,2944.471,846.838,2940.361,851.813z M2957.023,822.366l-58.045-59.152l15.959-15.959l47.502,47.485      C2961.986,804.384,2960.104,813.654,2957.023,822.366z M2961.271,774.426l-36.76-36.744l12.795-12.796      C2949.65,738.458,2958.188,755.539,2961.271,774.426z"/>
			</g>
		</g>
	</g>
	<g>
		<g>
			<g>
				<g>
					<g>
						<path fill="#FFFFFF" d="M83.125,89.405c-4.142,0-7.5-3.357-7.5-7.499L75.62,23.262c0-2.857,1.623-5.467,4.187-6.729        s5.622-0.958,7.886,0.783l38.125,29.322c3.284,2.525,3.898,7.234,1.373,10.518c-2.525,3.285-7.234,3.898-10.517,1.373        L90.621,38.491l0.003,43.413C90.625,86.047,87.267,89.405,83.125,89.405z"/>
					</g>
				</g>
			</g>
		</g>
		<g>
			<g>
				<path fill="#FFFFFF" d="M97.583,168.926c-2.48,0-4.91-1.011-6.66-2.761c-1.76-1.76-2.77-4.189-2.77-6.67      c0-2.489,1.01-4.92,2.77-6.67c1.75-1.76,4.18-2.77,6.66-2.77c2.49,0,4.92,1.01,6.67,2.77c1.76,1.75,2.77,4.181,2.77,6.67      c0,2.48-1.01,4.91-2.77,6.67C102.503,167.915,100.073,168.926,97.583,168.926z"/>
			</g>
		</g>
		<g>
			<g>
				<path fill="#FFFFFF" d="M235.857,310.775h-40.224c-3.684,0-6.823-2.676-7.406-6.313L184,278.071h-29.314l-4.228,26.391      c-0.583,3.638-3.722,6.313-7.406,6.313h-40.225c-3.684,0-6.823-2.676-7.406-6.313l-4.713-29.419      c-16.021-10.763-41.582-33.007-49.104-39.629c-30.886-0.901-35.596-16.317-35.596-25.617v-40.691      c0-7.152,3.225-23.096,31.37-25.383c1.816-17.297,9.955-35.686,22.54-50.45c14.634-17.169,33.481-27.467,53.711-29.512      l-0.003-50.979c0-2.881,1.649-5.508,4.245-6.758c2.595-1.251,5.677-0.903,7.93,0.892l70.848,56.467h19.485      c51.198,0,89.806,40.861,89.806,95.047v47.546c0,46.486-28.374,69.005-58.399,71.798l-4.276,26.688      C242.68,308.1,239.542,310.775,235.857,310.775z M202.027,295.775h27.436l4.229-26.391c0.583-3.638,3.722-6.313,7.406-6.313      c30.277,0,49.841-22.411,49.841-57.096V158.43c0-45.634-32.16-80.047-74.806-80.047h-22.108c-1.698,0-3.346-0.576-4.674-1.635      l-60.724-48.397l0.003,42.531c0,1.989-0.79,3.897-2.196,5.304c-1.407,1.407-3.314,2.197-5.304,2.197      c-18.579,0-36.263,8.744-49.796,24.62C59.402,117,51.991,135.371,51.991,150.947c0,4.143-3.358,7.5-7.5,7.5      c-8.771,0-23.483,1.385-23.483,10.658v40.691c0,7.072,7.901,10.658,23.483,10.658c1.839,0,3.613,0.676,4.987,1.898      c0.35,0.312,35.217,31.296,52.09,41.861c1.834,1.148,3.083,3.033,3.425,5.17l4.228,26.391h27.437l4.228-26.391      c0.583-3.638,3.722-6.313,7.406-6.313h42.103c3.684,0,6.823,2.676,7.406,6.313L202.027,295.775z"/>
			</g>
		</g>
		<g>
			<g>
				<path fill="#FFFFFF" d="M335.855,197.2c-0.966,0-1.94-0.187-2.869-0.571c-2.803-1.16-4.63-3.896-4.63-6.929v-20l-24.542,25.229      c-2.888,2.97-7.637,3.034-10.605,0.146c-2.969-2.888-3.035-7.637-0.146-10.605l37.418-38.467      c2.129-2.188,5.372-2.867,8.198-1.72c2.828,1.149,4.678,3.896,4.678,6.949v20.36l15.09-15.091c2.929-2.928,7.678-2.928,10.606,0      c2.929,2.93,2.929,7.678,0,10.607l-27.893,27.894C339.726,196.438,337.807,197.2,335.855,197.2z"/>
			</g>
		</g>
	</g>
	<g>
		<g>
			<path fill="#FFFFFF" d="M882.876,60.265c0,0-0.31-0.193-0.816-0.556c-0.483-0.363-1.288-0.895-2.098-1.571     c-0.852-0.678-1.891-1.499-2.936-2.442c-0.509-0.471-1.05-0.973-1.62-1.502c-0.32-0.264-0.268-0.535-0.118-0.812     c0.139-0.278,0.07-0.562,0.088-0.853c0-4.641,0-10.83,0-17.019s0-12.378,0-17.019c-0.023-0.291,0.055-0.574-0.067-0.853     c-0.058-0.139-0.138-0.275-0.109-0.411c0.019-0.136,0.151-0.27,0.307-0.401c0.585-0.529,1.141-1.031,1.662-1.502     c1.001-0.943,2.038-1.765,2.871-2.442c0.8-0.677,1.58-1.208,2.049-1.571c0.492-0.362,0.788-0.556,0.788-0.556     s0.295,0.193,0.788,0.556c0.469,0.363,1.248,0.895,2.049,1.571c0.833,0.678,1.87,1.499,2.871,2.442     c0.521,0.471,1.076,0.973,1.661,1.502c0.155,0.132,0.288,0.266,0.307,0.401c0.029,0.136-0.052,0.272-0.109,0.411     c-0.122,0.278-0.044,0.562-0.066,0.853c0,4.641,0,10.83,0,17.019s0,12.378,0,17.019c0.017,0.291-0.051,0.574,0.087,0.853     c0.149,0.277,0.203,0.549-0.118,0.812c-0.57,0.529-1.111,1.031-1.62,1.502c-1.045,0.943-2.083,1.765-2.935,2.442     c-0.81,0.677-1.615,1.208-2.098,1.571C883.186,60.071,882.876,60.265,882.876,60.265z"/>
		</g>
		<g>
			<path fill="#FFFFFF" d="M713.819,141.86c0,0-0.269,0.142-0.771,0.408c-0.489,0.247-1.277,0.705-2.124,1.077     c-0.437,0.203-0.92,0.428-1.446,0.673c-0.529,0.25-1.033,0.427-1.61,0.668c-0.567,0.229-1.173,0.473-1.81,0.729     c-0.337,0.153-0.453,0-0.517-0.233c-0.071-0.223-0.267-0.283-0.416-0.414c-2.546-1.877-5.94-4.38-9.336-6.883     c-3.395-2.503-6.79-5.006-9.336-6.884c-0.173-0.099-0.282-0.276-0.507-0.29c-0.109-0.012-0.234,0.001-0.291-0.079     c-0.061-0.072-0.056-0.233-0.038-0.409c0.057-0.685,0.111-1.334,0.162-1.944c0.076-1.187,0.241-2.354,0.364-3.299     c0.1-0.912,0.287-1.777,0.369-2.306c0.096-0.547,0.147-0.838,0.147-0.838s0.263-0.135,0.757-0.388     c0.48-0.235,1.251-0.671,2.094-1.035c0.865-0.397,1.932-0.899,3.043-1.323c0.568-0.229,1.173-0.474,1.81-0.73     c0.162-0.068,0.314-0.121,0.402-0.084c0.093,0.03,0.117,0.153,0.161,0.254c0.08,0.211,0.282,0.263,0.428,0.398     c2.546,1.877,5.94,4.38,9.336,6.883c3.395,2.503,6.79,5.006,9.336,6.884c0.169,0.104,0.285,0.272,0.519,0.274     c0.241-0.009,0.423,0.058,0.376,0.424c-0.057,0.686-0.111,1.335-0.162,1.945c-0.06,0.622-0.079,1.156-0.161,1.735     c-0.079,0.575-0.15,1.104-0.216,1.58c-0.104,0.919-0.31,1.808-0.4,2.349C713.876,141.562,713.819,141.86,713.819,141.86z"/>
		</g>
		<g>
			<path fill="#FFFFFF" d="M882.876,304.86c-73.626,0-136.074-60.269-159.507-86.181l-1.937-2.143v-31.592l1.937-2.143     c23.433-25.912,85.881-86.181,159.507-86.181c73.618,0,136.071,60.269,159.506,86.181l1.938,2.143v31.592l-1.938,2.143     C1018.947,244.592,956.494,304.86,882.876,304.86z M736.433,210.744c65.525,71.35,124.139,79.116,146.443,79.116     c22.303,0,80.911-7.767,146.443-79.116v-20.006c-65.532-71.35-124.141-79.116-146.443-79.116     c-22.305,0-80.918,7.767-146.443,79.116V210.744z"/>
		</g>
		<g>
			<path fill="#FFFFFF" d="M882.876,305.302c-57.654,0-104.56-46.907-104.56-104.562c0-57.653,46.905-104.559,104.56-104.559     s104.56,46.905,104.56,104.559C987.436,258.395,940.53,305.302,882.876,305.302z M882.876,111.181     c-49.384,0-89.56,40.176-89.56,89.559c0,49.385,40.176,89.562,89.56,89.562c49.383,0,89.56-40.178,89.56-89.562     C972.436,151.356,932.259,111.181,882.876,111.181z"/>
		</g>
		<g>
			<circle fill="#FFFFFF" cx="882.876" cy="200.741" r="50.418"/>
		</g>
		<g>
			<path fill="#FFFFFF" d="M765.666,40.214c0,0,0.356-0.003,0.96,0.029c0.584,0.044,1.523,0.06,2.533,0.188     c1.046,0.107,2.319,0.234,3.654,0.454c0.655,0.117,1.353,0.241,2.088,0.372c0.398,0.048,0.476,0.289,0.473,0.582     c0.008,0.288,0.195,0.479,0.313,0.716c2.118,3.659,4.942,8.537,7.768,13.416c2.824,4.879,5.648,9.758,7.767,13.416     c0.152,0.218,0.215,0.48,0.447,0.639c0.113,0.08,0.245,0.147,0.282,0.27c0.046,0.116-0.008,0.288-0.082,0.47     c-0.265,0.71-0.517,1.384-0.753,2.017c-0.436,1.245-0.958,2.412-1.37,3.363c-0.384,0.935-0.815,1.745-1.056,2.266     c-0.261,0.532-0.429,0.833-0.429,0.833s-0.344-0.005-0.936-0.043c-0.571-0.052-1.489-0.08-2.49-0.213     c-1.03-0.116-2.303-0.244-3.6-0.486c-0.666-0.11-1.375-0.228-2.123-0.352c-0.194-0.025-0.371-0.064-0.448-0.163     c-0.087-0.092-0.08-0.24-0.094-0.379c-0.021-0.28-0.218-0.465-0.331-0.705c-2.118-3.659-4.942-8.537-7.767-13.416     c-2.825-4.879-5.649-9.758-7.768-13.416c-0.146-0.221-0.218-0.479-0.464-0.628c-0.257-0.145-0.427-0.331-0.27-0.7     c0.253-0.703,0.492-1.369,0.717-1.996c0.475-1.267,0.998-2.435,1.426-3.396c0.392-0.938,0.846-1.762,1.099-2.289     C765.486,40.521,765.666,40.214,765.666,40.214z"/>
		</g>
		<g>
			<path fill="#FFFFFF" d="M1051.932,141.86c0,0-0.056-0.298-0.161-0.857c-0.092-0.541-0.297-1.43-0.4-2.349     c-0.065-0.477-0.138-1.005-0.216-1.58c-0.082-0.579-0.103-1.113-0.162-1.735c-0.051-0.61-0.104-1.26-0.162-1.945     c-0.046-0.366,0.135-0.433,0.376-0.424c0.233-0.002,0.35-0.171,0.519-0.274c2.547-1.878,5.941-4.381,9.337-6.884     c3.395-2.503,6.789-5.006,9.336-6.883c0.146-0.136,0.348-0.188,0.428-0.398c0.043-0.101,0.068-0.224,0.16-0.254     c0.088-0.037,0.24,0.016,0.402,0.084c0.638,0.257,1.242,0.501,1.811,0.73c1.11,0.424,2.177,0.926,3.043,1.323     c0.842,0.364,1.613,0.8,2.094,1.035c0.493,0.253,0.757,0.388,0.757,0.388s0.051,0.291,0.146,0.838     c0.082,0.528,0.271,1.394,0.37,2.306c0.123,0.944,0.287,2.112,0.364,3.299c0.051,0.61,0.104,1.26,0.162,1.944     c0.017,0.176,0.022,0.337-0.039,0.409c-0.056,0.08-0.182,0.067-0.29,0.079c-0.225,0.014-0.335,0.191-0.507,0.29     c-2.547,1.878-5.941,4.381-9.337,6.884c-3.395,2.503-6.789,5.006-9.336,6.883c-0.149,0.131-0.345,0.191-0.416,0.414     c-0.062,0.233-0.18,0.387-0.516,0.233c-0.638-0.257-1.242-0.501-1.811-0.729c-0.576-0.241-1.08-0.418-1.61-0.668     c-0.525-0.245-1.009-0.47-1.445-0.673c-0.847-0.372-1.636-0.83-2.125-1.077C1052.2,142.002,1051.932,141.86,1051.932,141.86z"/>
		</g>
		<g>
			<path fill="#FFFFFF" d="M1000.085,40.214c0,0,0.18,0.308,0.453,0.848c0.252,0.527,0.707,1.351,1.098,2.289     c0.429,0.961,0.952,2.129,1.426,3.396c0.226,0.627,0.465,1.293,0.717,1.996c0.157,0.369-0.013,0.556-0.269,0.7     c-0.246,0.149-0.317,0.407-0.465,0.628c-2.118,3.658-4.942,8.537-7.767,13.416c-2.825,4.879-5.649,9.757-7.768,13.416     c-0.112,0.24-0.31,0.425-0.331,0.705c-0.014,0.139-0.006,0.287-0.093,0.379c-0.078,0.099-0.254,0.138-0.449,0.163     c-0.747,0.124-1.456,0.241-2.123,0.352c-1.297,0.242-2.569,0.37-3.6,0.486c-1.001,0.133-1.919,0.161-2.49,0.213     c-0.592,0.038-0.936,0.043-0.936,0.043s-0.167-0.301-0.428-0.833c-0.24-0.521-0.673-1.331-1.057-2.266     c-0.412-0.951-0.935-2.118-1.37-3.363c-0.236-0.633-0.487-1.307-0.753-2.017c-0.073-0.182-0.128-0.354-0.081-0.47     c0.036-0.122,0.169-0.189,0.282-0.27c0.232-0.158,0.294-0.421,0.446-0.639c2.118-3.658,4.943-8.537,7.768-13.416     s5.648-9.757,7.767-13.416c0.118-0.237,0.307-0.428,0.313-0.716c-0.003-0.293,0.075-0.534,0.474-0.582     c0.735-0.131,1.432-0.255,2.087-0.372c1.335-0.22,2.609-0.347,3.655-0.454c1.009-0.128,1.949-0.144,2.532-0.188     C999.729,40.211,1000.085,40.214,1000.085,40.214z"/>
		</g>
	</g>
	<g>
		<g>
			<g>
				<path fill="#FFFFFF" d="M1651.567,262.426c-58.075,0-105.323-47.249-105.323-105.325c0-38.463,18.018-68.926,52.105-88.093      c25.186-14.162,50.089-17.071,51.136-17.188l6.381,12.329c-14.721,16.557-22.826,37.89-22.826,60.069      c0,49.876,40.577,90.454,90.454,90.454l6.128,11.643C1728.61,227.789,1704.216,262.426,1651.567,262.426z M1632.797,70.657      c-8.04,2.373-17.843,6.022-27.551,11.532c-29.286,16.619-44.133,41.824-44.133,74.911c0,49.878,40.576,90.456,90.454,90.456      c27.131,0,45.42-10.715,55.693-19.266c-50.396-7.829-89.089-51.517-89.089-104.073      C1618.172,105.225,1623.277,86.765,1632.797,70.657z"/>
			</g>
		</g>
		<g>
			<g>
				<path fill="#FFFFFF" d="M1419.252,189.541h-14.868c0-32.357-26.325-58.682-58.683-58.682v-14.868      c32.357,0,58.683-26.324,58.683-58.682h14.868c0,32.357,26.325,58.682,58.683,58.682v14.868      C1445.577,130.859,1419.252,157.184,1419.252,189.541z M1377.91,123.425c14.726,7.203,26.705,19.184,33.908,33.907      c7.201-14.724,19.183-26.704,33.906-33.907c-14.724-7.202-26.705-19.183-33.906-33.906      C1404.615,104.242,1392.636,116.223,1377.91,123.425z"/>
			</g>
		</g>
		<g>
			<g>
				<path fill="#FFFFFF" d="M1494.6,272.237h-14.868c0-18.603-15.136-33.736-33.74-33.736v-14.868      c18.604,0,33.74-15.136,33.74-33.741h14.868c0,18.605,15.136,33.741,33.741,33.741v14.868      C1509.735,238.501,1494.6,253.635,1494.6,272.237z M1471.804,231.066c6.199,3.9,11.462,9.164,15.361,15.361      c3.901-6.197,9.164-11.461,15.363-15.361c-6.199-3.9-11.462-9.163-15.363-15.362      C1483.266,221.903,1478.003,227.166,1471.804,231.066z"/>
			</g>
		</g>
		<g>
			<g>
				<path fill="#FFFFFF" d="M1756.78,149.99h-14.868c0-18.604-15.136-33.739-33.74-33.739v-14.868      c18.604,0,33.74-15.136,33.74-33.74h14.868c0,18.604,15.137,33.74,33.74,33.74v14.868      C1771.917,116.251,1756.78,131.386,1756.78,149.99z M1733.983,108.817c6.199,3.899,11.463,9.163,15.363,15.362      c3.9-6.199,9.164-11.463,15.361-15.362c-6.197-3.9-11.461-9.164-15.361-15.363      C1745.446,99.653,1740.183,104.917,1733.983,108.817z"/>
			</g>
		</g>
	</g>
	<g>
		<g>
			<g>
				<path fill="#FFFFFF" d="M874.551,884.953c-23.042,0-62.038-5.014-62.038-23.807v-0.503l0.078-0.497l25.012-160.598l0.104-0.371      c3.809-13.603,17.464-22.053,35.639-22.053c7.407,0,29.948,0,35.672,22.181l0.113,0.529l27.461,160.761v0.551      C936.591,879.939,897.594,884.953,874.551,884.953z M825.593,861.134c1.904,3.291,18.237,10.82,48.958,10.82      c30.656,0,46.986-7.497,48.947-10.799l-27.135-158.85c-1.704-6.358-5.774-12.181-23.019-12.181      c-12.101,0-20.671,4.562-23.021,12.223L825.593,861.134z"/>
			</g>
		</g>
		<g>
			<g>
				<path fill="#FFFFFF" d="M894.925,663.79c-2.232,0-4.405-1.15-5.614-3.215c-1.437-2.45-4.653-5.708-15.966-5.708      c-6.722,0-12.08,1.83-15.09,5.15c-2.412,2.658-6.522,2.861-9.182,0.452c-2.66-2.412-2.862-6.522-0.451-9.182      c5.505-6.075,14.285-9.421,24.723-9.421c13.505,0,22.396,3.97,27.182,12.136c1.814,3.098,0.775,7.079-2.322,8.895      C897.172,663.502,896.04,663.79,894.925,663.79z"/>
			</g>
		</g>
		<g>
			<g>
				<path fill="#FFFFFF" d="M938.945,873.715c-3.064,0-6.105-0.073-9.038-0.219c-3.586-0.178-6.349-3.229-6.171-6.813      s3.225-6.332,6.813-6.171c2.72,0.135,5.545,0.203,8.396,0.203c29.793,0,46.057-7.08,48.747-10.508l-54.795-154.73      c-4.943-11.222-8.495-13.203-23.332-13.203c-8.063,0-14.564,1.994-18.8,5.766c-2.68,2.388-6.79,2.149-9.177-0.53      c-2.388-2.681-2.15-6.789,0.53-9.177c6.653-5.926,16.145-9.059,27.446-9.059c17.654,0,27.444,3.174,35.334,21.203l0.173,0.436      l55.911,157.883v1.117C1000.983,868.701,961.987,873.715,938.945,873.715z"/>
			</g>
		</g>
		<g>
			<g>
				<path fill="#FFFFFF" d="M1001,859.529c-1.552,0-2.988-0.182-4.262-0.344c-0.774-0.099-1.507-0.191-2.113-0.221      c-3.586-0.175-6.351-3.224-6.175-6.81c0.175-3.586,3.222-6.349,6.809-6.175c1.109,0.054,2.176,0.19,3.116,0.309      c1.369,0.174,2.781,0.353,3.481,0.151c10.736-3.101,17.489-6.102,20.069-8.922c1.399-1.529,1.581-2.89,1.588-7.421      c-8.638-49.577-53.289-139.52-53.741-140.425l-0.138-0.296c-5.746-13.131-14.426-19.248-27.315-19.248      c-8.065,0-14.566,1.993-18.8,5.763c-2.682,2.388-6.79,2.147-9.177-0.532c-2.388-2.68-2.149-6.788,0.531-9.177      c6.651-5.923,16.142-9.054,27.445-9.054c18.126,0,31.301,9.045,39.159,26.886c2.721,5.469,46.303,93.605,54.943,144.439      l0.092,0.54v0.77c0.001,5.187,0.002,11.066-4.997,16.531c-4.456,4.87-12.248,8.65-26.055,12.636      C1003.904,859.381,1002.405,859.529,1001,859.529z"/>
			</g>
		</g>
		<g>
			<g>
				<path fill="#FFFFFF" d="M749.759,859.529c-1.405,0-2.904-0.148-4.462-0.599c-13.807-3.985-21.599-7.766-26.055-12.636      c-4.999-5.464-4.998-11.344-4.997-16.531v-0.77l0.092-0.54c8.64-50.834,52.222-138.971,54.942-144.439      c7.859-17.841,21.033-26.886,39.16-26.886c11.302,0,20.792,3.131,27.444,9.054c2.682,2.387,2.92,6.495,0.532,9.177      c-2.388,2.68-6.496,2.922-9.177,0.532c-4.234-3.77-10.735-5.763-18.8-5.763c-12.89,0-21.569,6.117-27.316,19.248l-0.138,0.296      c-0.451,0.905-45.103,90.848-53.74,140.425c0.007,4.531,0.188,5.892,1.588,7.421c2.58,2.82,9.333,5.821,20.07,8.922      c0.697,0.201,2.111,0.022,3.48-0.151c0.94-0.118,2.007-0.255,3.115-0.309c3.584-0.17,6.634,2.589,6.81,6.175      c0.175,3.586-2.59,6.635-6.176,6.81c-0.605,0.029-1.338,0.122-2.112,0.221C752.747,859.348,751.31,859.529,749.759,859.529z"/>
			</g>
		</g>
		<g>
			<g>
				<path fill="#FFFFFF" d="M811.627,873.715c-23.042,0-62.038-5.014-62.038-23.803v-1.117l56.083-158.318      c7.89-18.029,17.681-21.203,35.336-21.203c11.303,0,20.793,3.133,27.445,9.059c2.681,2.388,2.918,6.498,0.53,9.178      s-6.496,2.917-9.178,0.529c-4.233-3.771-10.734-5.766-18.798-5.766c-14.838,0-18.391,1.981-23.333,13.203l-54.795,154.73      c2.69,3.428,18.954,10.508,48.747,10.508c2.851,0,5.676-0.068,8.396-0.203c3.579-0.14,6.636,2.586,6.813,6.171      s-2.585,6.636-6.171,6.813C817.732,873.642,814.691,873.715,811.627,873.715z"/>
			</g>
		</g>
		<g>
			<g>
				<path fill="#FFFFFF" d="M890.155,686.98c-2.445,0-4.788-1.387-5.893-3.748c-1.645-3.516-2.478-7.226-2.478-11.026      c0-16.803,16.614-30.472,37.036-30.472c15.47,0,29.038,7.64,34.566,19.464c1.521,3.252,0.116,7.121-3.136,8.642      c-3.252,1.52-7.121,0.116-8.641-3.136c-3.348-7.159-12.506-11.97-22.79-11.97c-13.029,0-24.036,8.001-24.036,17.472      c0,1.883,0.422,3.741,1.254,5.519c1.521,3.252,0.117,7.121-3.135,8.642C892.014,686.783,891.077,686.98,890.155,686.98z"/>
			</g>
		</g>
		<g>
			<g>
				<path fill="#FFFFFF" d="M860.021,686.98c-0.922,0-1.858-0.197-2.749-0.614c-3.252-1.521-4.655-5.39-3.134-8.642      c0.831-1.777,1.253-3.636,1.253-5.519c0-9.471-11.007-17.472-24.035-17.472c-10.284,0-19.443,4.811-22.791,11.97      c-1.521,3.252-5.389,4.657-8.641,3.135c-3.252-1.521-4.656-5.389-3.136-8.641c5.528-11.824,19.098-19.464,34.567-19.464      c20.422,0,37.035,13.669,37.035,30.472c0,3.801-0.833,7.511-2.478,11.026C864.81,685.594,862.467,686.98,860.021,686.98z"/>
			</g>
		</g>
		<g>
			<g>
				<path fill="#FFFFFF" d="M875.286,686.979c-15.937,0-17.656-6.881-17.656-9.839c0-2.959,1.72-9.839,17.656-9.839      c15.936,0,17.656,6.88,17.656,9.839C892.942,680.098,891.222,686.979,875.286,686.979z"/>
			</g>
		</g>
	</g>
	<g>
		<g>
			<g>
				<path fill="#FFFFFF" d="M196.862,930.147h-14.466c-0.438,0-0.875-0.048-1.302-0.143l-14.61-3.247      c-0.105-0.023-0.209-0.05-0.313-0.079L13.945,884.146c-2.592-0.724-4.385-3.086-4.385-5.778V648.912      c0-1.854,0.856-3.603,2.318-4.738c1.463-1.136,3.367-1.531,5.164-1.076l166.107,42.346h12.96l166.106-42.346      c1.796-0.455,3.701-0.06,5.164,1.076c1.462,1.136,2.318,2.885,2.318,4.738v229.456c0,2.692-1.793,5.055-4.385,5.778      l-152.226,42.532c-0.104,0.029-0.208,0.056-0.313,0.079l-14.609,3.247C197.737,930.1,197.3,930.147,196.862,930.147z       M183.055,918.147h13.148l13.808-3.069l147.686-41.264V656.633l-159.353,40.625c-0.484,0.123-0.982,0.186-1.482,0.186h-14.466      c-0.5,0-0.998-0.062-1.482-0.186L21.56,656.633v217.182l147.687,41.264L183.055,918.147z"/>
			</g>
		</g>
		<g>
			<g>
				<path fill="#FFFFFF" d="M182.396,852.591c-3.313,0-6-2.686-6-6V691.443c0-3.312,2.687-6,6-6h13.959c3.313,0,6,2.688,6,6v110.142      c0,3.313-2.687,6-6,6s-6-2.687-6-6V697.443h-1.959v149.147C188.396,849.905,185.71,852.591,182.396,852.591z"/>
			</g>
		</g>
		<g>
			<g>
				<path fill="#FFFFFF" d="M196.356,929.147h-13.959c-2.761,0-5-2.238-5-5V910.38c0-2.762,2.239-5,5-5s5,2.238,5,5v8.768h3.959      v-9.227c0-2.762,2.239-5,5-5s5,2.238,5,5v14.227C201.356,926.909,199.117,929.147,196.356,929.147z"/>
			</g>
		</g>
		<g>
			<g>
				<path fill="#FFFFFF" d="M188.62,697.311c-0.836,0-1.686-0.175-2.496-0.546l-132.71-60.811v8.544c0,3.312-2.687,6-6,6      s-6-2.688-6-6v-17.894c0-2.044,1.04-3.947,2.759-5.051c1.72-1.103,3.883-1.255,5.74-0.405l141.21,64.706      c3.012,1.381,4.335,4.942,2.955,7.954C193.069,696.012,190.894,697.311,188.62,697.311z"/>
			</g>
		</g>
		<g>
			<g>
				<path fill="#FFFFFF" d="M188.622,697.31c-1.246,0-2.497-0.387-3.562-1.174l-99.79-73.704v5.98c0,3.312-2.687,6-6,6s-6-2.688-6-6      v-17.871c0-2.265,1.275-4.337,3.297-5.356c2.022-1.021,4.446-0.816,6.268,0.53l77.298,57.092l-24.641-33.39l0.023,3.189      c0.024,3.314-2.643,6.019-5.957,6.043c-3.31,0.055-6.02-2.643-6.043-5.956l-0.157-21.648c-0.019-2.6,1.638-4.914,4.104-5.736      c2.467-0.823,5.18,0.039,6.724,2.13l59.267,80.31c1.763,2.388,1.514,5.706-0.586,7.806      C191.703,696.715,190.167,697.31,188.622,697.31z"/>
			</g>
		</g>
		<g>
			<g>
				<path fill="#FFFFFF" d="M188.618,697.311c-2.766,0-5.253-1.923-5.859-4.737l-8.401-38.993c-1.027,0.771-2.329,1.229-3.694,1.201      c-3.313-0.05-5.959-2.775-5.909-6.089l0.567-37.78c0.046-3.052,2.373-5.582,5.409-5.881c3.035-0.303,5.813,1.724,6.456,4.706      l17.303,80.31c0.698,3.238-1.362,6.43-4.602,7.128C189.461,697.267,189.036,697.311,188.618,697.311z"/>
			</g>
		</g>
		<g>
			<g>
				<path fill="#FFFFFF" d="M190.133,697.311c-2.274,0.002-4.449-1.299-5.458-3.502c-1.38-3.012-0.057-6.573,2.955-7.954      l141.212-64.706c1.858-0.85,4.021-0.697,5.74,0.405c1.72,1.104,2.759,3.007,2.759,5.051v17.894c0,3.312-2.687,6-6,6      c-3.314,0-6-2.688-6-6v-8.544l-132.713,60.811C191.819,697.135,190.969,697.311,190.133,697.311z"/>
			</g>
		</g>
		<g>
			<g>
				<path fill="#FFFFFF" d="M190.131,697.31c-1.545,0-3.082-0.595-4.244-1.756c-2.1-2.1-2.349-5.418-0.586-7.806l59.267-80.31      c1.543-2.091,4.257-2.953,6.723-2.13c2.466,0.82,4.123,3.137,4.104,5.734l-0.155,22.11c-0.009,1.272-0.414,2.451-1.098,3.418      l41.777-30.856c1.821-1.347,4.246-1.551,6.268-0.53c2.021,1.02,3.297,3.092,3.297,5.356v17.871c0,3.312-2.687,6-6,6      s-6-2.688-6-6v-5.98l-99.791,73.704C192.628,696.923,191.377,697.31,190.131,697.31z M243.267,629.412l-24.646,33.395      l32.482-23.991c-0.6,0.196-1.271,0.298-1.905,0.295c-3.314-0.023-5.981-2.729-5.958-6.042L243.267,629.412z"/>
			</g>
		</g>
		<g>
			<g>
				<path fill="#FFFFFF" d="M190.135,697.311c-0.419,0-0.844-0.044-1.27-0.136c-3.24-0.698-5.3-3.89-4.602-7.128l17.305-80.31      c0.643-2.982,3.41-5.004,6.456-4.706c3.036,0.299,5.363,2.829,5.409,5.881l0.567,37.78c0.049,3.313-2.596,6.039-5.91,6.089      c-1.369,0.06-2.667-0.429-3.694-1.201l-8.403,38.993C195.389,695.388,192.901,697.311,190.135,697.311z"/>
			</g>
		</g>
		<g>
			<g>
				<g>
					<path fill="#FFFFFF" d="M226.638,803.604l-5.477-5.646l0.104,6.843l-3.396,0.757l-0.223-14.593l3.395-0.785l0.097,6.362       l5.035-7.551l4.015-0.929l-5.905,8.365l6.448,6.263L226.638,803.604z"/>
				</g>
			</g>
			<g>
				<g>
					<path fill="#FFFFFF" d="M241.64,800.256l-1.139-2.438l-5.053,1.137l-1.059,2.92l-3.455,0.772l6.666-16.421l0.459-0.105       l7.116,13.347L241.64,800.256z M237.892,792.222l-1.405,3.874l2.896-0.655L237.892,792.222z"/>
				</g>
			</g>
			<g>
				<g>
					<path fill="#FFFFFF" d="M258.479,796.494l-0.29-7.294l-3.976,6.147l-0.359,0.079l-4.173-4.291l-0.03,7.331l-3.276,0.731       l0.455-15.092l0.459-0.146l6.758,6.979l6.344-10.018l0.46-0.066l0.923,14.902L258.479,796.494z"/>
				</g>
			</g>
			<g>
				<g>
					<path fill="#FFFFFF" d="M273.68,793.096l-1.139-2.488l-5.053,1.139l-1.059,2.97l-3.455,0.771l6.666-16.692l0.459-0.108       l7.116,13.615L273.68,793.096z M269.932,784.898l-1.404,3.94l2.896-0.656L269.932,784.898z"/>
				</g>
			</g>
			<g>
				<g>
					<path fill="#FFFFFF" d="M286.548,790.461c-1.658,0.37-3.665,0.137-4.956-0.444l0.892-3.393       c1.191,0.624,2.738,0.854,4.116,0.544c1.198-0.271,1.649-0.955,1.639-1.702c-0.012-0.785-0.399-1.235-2.65-1.66       c-2.592-0.488-3.514-1.832-3.541-3.649c-0.032-2.208,1.674-4.76,5.089-5.554c1.598-0.372,3.244-0.172,4.111,0.229l-0.812,3.354       c-0.848-0.408-2.215-0.737-3.253-0.498c-1.239,0.287-1.729,1.002-1.72,1.621c0.015,0.994,0.759,1.155,2.608,1.541       c2.754,0.578,3.593,1.761,3.621,3.711C291.728,786.989,290.063,789.674,286.548,790.461z"/>
				</g>
			</g>
			<g>
				<g>
					<path fill="#FFFFFF" d="M300.112,787.423c-3.935,0.881-6.164-0.831-6.227-5.07l-0.132-9.04l3.396-0.79l0.128,8.809       c0.032,2.167,0.93,3.278,2.867,2.842c1.917-0.436,2.777-1.949,2.746-4.119l-0.128-8.837l3.395-0.791l0.132,9.104       C306.351,783.797,304.047,786.539,300.112,787.423z"/>
				</g>
			</g>
			<g>
				<g>
					<path fill="#FFFFFF" d="M315.893,771.45l0.176,12.139l-3.396,0.764l-0.176-12.117l-4.394,1.016l-0.047-3.268l12.183-2.837       l0.048,3.288L315.893,771.45z"/>
				</g>
			</g>
			<g>
				<g>
					<path fill="#FFFFFF" d="M330.311,780.39l-2.569-4.5c-0.199,0.066-0.379,0.108-0.579,0.155c-0.5,0.111-0.78,0.154-1.26,0.243       l0.074,5.076l-3.396,0.763L322.36,766.8c1.236-0.436,2.593-0.857,4.311-1.26c4.554-1.06,6.384,0.832,6.425,3.678       c0.026,1.848-0.888,3.719-2.451,5.077l3.521,5.228L330.311,780.39z M327.116,768.664c-0.519,0.12-0.838,0.215-1.316,0.411       l0.061,4.273c0.44-0.06,0.68-0.093,1.08-0.184c1.618-0.37,2.645-1.437,2.622-3.005       C329.544,768.867,328.573,768.325,327.116,768.664z"/>
				</g>
			</g>
			<g>
				<g>
					<path fill="#FFFFFF" d="M344.872,777.114l-1.139-2.594l-5.053,1.145l-1.059,3.081l-3.455,0.776l6.666-17.308l0.459-0.107       l7.116,14.211L344.872,777.114z M341.124,768.565l-1.404,4.086l2.896-0.662L341.124,768.565z"/>
				</g>
			</g>
		</g>
	</g>
	<g>
		<g>
			<path fill="#FFFFFF" d="M2123.076,667.297c0,0,0.255,0.134,0.733,0.386c0.457,0.252,1.238,0.621,1.986,1.091     c0.395,0.234,0.831,0.495,1.307,0.778c0.48,0.283,0.893,0.589,1.393,0.916c0.487,0.327,1.006,0.676,1.551,1.043     c0.302,0.183,0.251,0.371,0.111,0.564c-0.128,0.192-0.065,0.39-0.081,0.591c0,3.222,0,7.517,0,11.812s0,8.59,0,11.812     c0.021,0.201-0.052,0.398,0.062,0.591c0.052,0.097,0.13,0.192,0.102,0.286c-0.021,0.094-0.145,0.187-0.286,0.278     c-0.546,0.367-1.063,0.716-1.551,1.043c-0.934,0.654-1.901,1.225-2.68,1.694c-0.74,0.47-1.494,0.839-1.937,1.091     c-0.464,0.252-0.711,0.386-0.711,0.386s-0.247-0.134-0.711-0.386c-0.442-0.252-1.196-0.621-1.937-1.091     c-0.778-0.47-1.746-1.04-2.68-1.694c-0.487-0.327-1.005-0.676-1.551-1.043c-0.142-0.092-0.266-0.185-0.286-0.278     c-0.028-0.094,0.05-0.189,0.102-0.286c0.114-0.192,0.041-0.39,0.062-0.591c0-3.222,0-7.517,0-11.812s0-8.59,0-11.812     c-0.016-0.201,0.047-0.398-0.081-0.591c-0.14-0.193-0.19-0.382,0.111-0.564c0.545-0.367,1.063-0.716,1.551-1.043     c0.5-0.327,0.912-0.633,1.393-0.916c0.476-0.283,0.912-0.544,1.307-0.778c0.748-0.47,1.529-0.839,1.986-1.091     C2122.821,667.431,2123.076,667.297,2123.076,667.297z"/>
		</g>
		<g>
			<path fill="#FFFFFF" d="M2201.818,753.309c0-4.295,0,2.592,0-0.631c-0.016-0.201,0.043-0.398-0.076-0.59     c-0.127-0.193-0.174-0.383,0.103-0.564c0.504-0.369,0.981-0.717,1.43-1.043c0.46-0.328,0.841-0.635,1.285-0.916     c0.437-0.283,0.84-0.545,1.202-0.779c0.697-0.469,1.39-0.838,1.805-1.09c0.436-0.252,0.702-0.387,0.702-0.387     s0.266,0.135,0.702,0.387c0.415,0.252,1.108,0.621,1.805,1.09c0.362,0.234,0.766,0.496,1.204,0.779     c0.442,0.281,0.823,0.588,1.283,0.916c0.448,0.326,0.925,0.674,1.429,1.043c0.277,0.182,0.23,0.371,0.104,0.564     c-0.119,0.191-0.061,0.389-0.076,0.59c0,3.223,0-3.664,0,0.631"/>
		</g>
		<g>
			<path fill="#FFFFFF" d="M2123.076,765.941c-20.81,0-37.74-15.989-37.74-35.643c0-19.652,16.931-35.641,37.74-35.641     c20.812,0,37.742,15.988,37.742,35.641C2160.818,749.952,2143.888,765.941,2123.076,765.941z M2123.076,708.658     c-13.091,0-23.74,9.708-23.74,21.641c0,11.934,10.649,21.643,23.74,21.643c13.092,0,23.742-9.709,23.742-21.643     C2146.818,718.366,2136.168,708.658,2123.076,708.658z"/>
		</g>
		<g>
			<path fill="#FFFFFF" d="M2142.396,819.945h-43.318v-14h43.318c32.462,0,58.872-24.392,58.872-54.373h14     C2215.269,789.273,2182.578,819.945,2142.396,819.945z"/>
		</g>
		<g>
			
				<rect x="2085.515" y="755.93" transform="matrix(0.9625 0.2712 -0.2712 0.9625 305.2382 -536.1837)" fill="#FFFFFF" width="13.999" height="160.64"/>
		</g>
		<g>
			<path fill="#FFFFFF" d="M2076.447,893.254c0,0,0.215,0.178,0.618,0.511c0.383,0.326,1.051,0.836,1.664,1.418     c0.326,0.296,0.688,0.624,1.08,0.981c0.398,0.358,0.727,0.718,1.133,1.117c0.395,0.396,0.813,0.816,1.256,1.261     c0.248,0.229,0.156,0.367-0.021,0.485c-0.167,0.12-0.152,0.296-0.213,0.454c-0.732,2.597-1.708,6.06-2.685,9.521     c-0.977,3.463-1.952,6.925-2.685,9.521c-0.025,0.168-0.141,0.308-0.074,0.494c0.027,0.092,0.082,0.189,0.033,0.258     c-0.042,0.07-0.182,0.111-0.339,0.146c-0.609,0.148-1.187,0.288-1.729,0.42c-1.048,0.273-2.109,0.471-2.965,0.639     c-0.819,0.178-1.629,0.271-2.112,0.354c-0.503,0.077-0.771,0.118-0.771,0.118s-0.208-0.175-0.597-0.504     c-0.368-0.323-1.01-0.825-1.616-1.405c-0.642-0.59-1.443-1.312-2.194-2.093c-0.394-0.396-0.812-0.817-1.255-1.261     c-0.115-0.113-0.214-0.222-0.212-0.303c-0.007-0.084,0.092-0.139,0.163-0.203c0.153-0.124,0.128-0.303,0.194-0.459     c0.732-2.597,1.708-6.06,2.685-9.521c0.977-3.463,1.952-6.925,2.685-9.521c0.031-0.167,0.136-0.309,0.057-0.499     c-0.091-0.193-0.097-0.358,0.234-0.425c0.609-0.147,1.188-0.288,1.73-0.42c0.556-0.128,1.021-0.263,1.549-0.36     c0.522-0.099,1.002-0.19,1.435-0.272c0.826-0.176,1.662-0.262,2.159-0.34C2076.171,893.293,2076.447,893.254,2076.447,893.254z"/>
		</g>
		<g>
			
				<rect x="2072.802" y="829.958" transform="matrix(0.2713 0.9625 -0.9625 0.2713 2375.0833 -1463.1868)" fill="#FFFFFF" width="162.113" height="14"/>
		</g>
		<g>
			<path fill="#FFFFFF" d="M2169.761,893.346c0,0,0.275,0.038,0.793,0.111c0.497,0.078,1.333,0.163,2.159,0.337     c0.433,0.082,0.911,0.173,1.434,0.271c0.526,0.097,0.993,0.231,1.548,0.358c0.543,0.131,1.121,0.271,1.729,0.417     c0.331,0.065,0.325,0.23,0.233,0.424c-0.078,0.189,0.025,0.33,0.057,0.496c0.729,2.589,1.701,6.039,2.674,9.49     c0.972,3.451,1.943,6.902,2.673,9.49c0.066,0.156,0.041,0.334,0.194,0.458c0.07,0.063,0.169,0.118,0.162,0.202     c0.002,0.081-0.097,0.189-0.212,0.302c-0.442,0.442-0.862,0.862-1.257,1.258c-0.751,0.778-1.554,1.5-2.195,2.088     c-0.606,0.578-1.249,1.079-1.618,1.401c-0.39,0.328-0.597,0.503-0.597,0.503s-0.269-0.041-0.771-0.117     c-0.482-0.082-1.293-0.175-2.111-0.351c-0.854-0.167-1.916-0.363-2.963-0.635c-0.543-0.132-1.12-0.271-1.729-0.418     c-0.156-0.035-0.297-0.076-0.338-0.146c-0.049-0.067,0.006-0.165,0.033-0.257c0.065-0.186-0.049-0.324-0.074-0.491     c-0.729-2.589-1.701-6.039-2.674-9.49c-0.972-3.451-1.943-6.902-2.673-9.49c-0.061-0.158-0.045-0.333-0.212-0.453     c-0.178-0.117-0.27-0.254-0.021-0.483c0.443-0.443,0.862-0.863,1.257-1.258c0.407-0.398,0.735-0.757,1.134-1.114     c0.394-0.356,0.755-0.684,1.082-0.979c0.613-0.58,1.281-1.089,1.664-1.415C2169.546,893.522,2169.761,893.346,2169.761,893.346z"/>
		</g>
		<g>
			<g>
				<path fill="#FFFFFF" d="M2327.762,922.407l-156.71-307.936l6.237-10.175l156.68-0.016l7,6.999L2341,919.231L2327.762,922.407z       M2188.706,618.296l138.292,271.742l-0.027-271.757L2188.706,618.296z"/>
			</g>
			<g>
				<path fill="#FFFFFF" d="M2289.432,752.515l-47.422-93.189l6.238-10.175l47.414-0.006l7.002,7l0.006,93.194L2289.432,752.515z       M2259.664,663.148l29.004,56.997l-0.004-57L2259.664,663.148z"/>
			</g>
		</g>
	</g>
</g>
</svg>
