<?xml version="1.0" encoding="utf-8"?>
<!-- Generator: Adobe Illustrator 16.0.0, SVG Export Plug-In . SVG Version: 6.00 Build 0)  -->
<!DOCTYPE svg PUBLIC "-//W3C//DTD SVG 1.1//EN" "http://www.w3.org/Graphics/SVG/1.1/DTD/svg11.dtd">
<svg xmlns="http://www.w3.org/2000/svg" xmlns:xlink="http://www.w3.org/1999/xlink" version="1.1" id="Layer_1" x="0px" y="0px" width="479.333px" height="154px" viewBox="0 0 479.333 154" xml:space="preserve">
<g>
	<path fill="#FFFFFF" d="M150.479,33.487c-22.827,0-40.064,16.5-40.064,39.826c0,23.325,17.237,39.828,40.064,39.828   c10.694,0,19.468-4.831,22.814-9.033v8.094h17.874V34.42h-17.874v8.083C169.947,38.312,161.001,33.487,150.479,33.487    M151.109,96.638c-13.242,0-23.458-10.572-23.458-23.325s10.216-23.326,23.458-23.326c12.918,0,22.82,10.573,22.82,23.326   S164.027,96.638,151.109,96.638"/>
	<path fill="#FFFFFF" d="M304.727,33.487c-10.537,0-18.357,4.202-23.465,9.017V34.42h-17.547v118.539l17.547-1.866v-46.985   c4.953,5.297,13.564,9.033,23.465,9.033c23.783,0,39.578-15.56,39.578-39.828C344.305,49.043,328.51,33.487,304.727,33.487    M303.928,96.638c-13.881,0-22.982-9.953-22.982-23.325c0-13.377,9.102-23.326,22.982-23.326s23.141,9.949,23.141,23.326   C327.068,86.685,317.809,96.638,303.928,96.638"/>
	<path fill="#FFFFFF" d="M478.643,33.487c-11.172,0-16.756,4.047-20.59,9.017V34.42h-17.557v77.781h17.557V69.266   c0-11.52,7.828-19.276,18.994-19.276h1.596V33.487z"/>
	<path fill="#FFFFFF" d="M390.92,33.487c-22.666,0-40.539,17.723-40.539,39.826c0,22.096,17.873,39.821,41.01,39.821   c18.971,0,34.402-10.435,39.25-24.542h-20.748c-2.643,4.99-9.168,8.356-18.502,8.356c-11.482,0-20.578-7.929-22.492-17.716h62.078   c0.318-1.87,0.473-3.898,0.473-5.92C431.449,51.209,413.586,33.487,390.92,33.487 M369.693,63.973   c2.551-8.083,11.17-14.62,21.227-14.62c10.055,0,18.676,6.537,21.227,14.62H369.693z"/>
	<path fill="#FFFFFF" d="M228.438,48.858c-3.615,0-7.24,1.738-7.24,6.041c0,4.883,5.145,6.604,14.501,9.997   c13.07,4.737,19.266,11.129,19.266,22.979c0,12.332-10.535,25.26-28.171,25.26c-18.063,0-27.362-13.295-28.077-24.542h17.025   c0.95,4.896,4.724,8.949,11.051,8.949c6.503,0,10.344-4.403,10.344-9.667c0-3.602-1.263-7.489-12.264-10.428   c-11.894-3.171-20.415-9.68-20.415-22.548c0-11.731,10.404-21.412,23.979-21.412c11.9,0,19.464,8.238,22.787,13.805l-14.252,6.664   C234.742,50.677,231.753,48.858,228.438,48.858"/>
	<path fill="#FFFFFF" d="M57.729,1.708c-31.79,0-56.372,24.883-56.372,55.709c0,30.836,24.583,55.718,56.372,55.718   c20.145,0,39.084-10.855,47.74-26.536l-16.564-9.026c-6.277,11.361-17.642,17.881-31.176,17.881c-10.172,0-19.754-4-26.281-10.984   c-6.964-7.449-10.802-17.062-10.802-27.052c0-9.99,3.838-19.59,10.802-27.042c6.523-6.985,16.105-10.981,26.281-10.981   c10.802,0,17.244,3.727,21.651,6.975c4.727,3.48,10.044,6.887,18.312,6.887c15.58,0,22.402-12.47,23.841-19.066l-17.248-3.559   c-0.122,0.553-1.331,5.436-6.594,5.436c-2.322,0-3.737-0.894-7.49-3.666C84.083,7.884,75.681,1.708,57.729,1.708"/>
</g>
</svg>
